<?xml version="1.0" standalone="no"?><!DOCTYPE svg PUBLIC "-//W3C//DTD SVG 1.1//EN" "http://www.w3.org/Graphics/SVG/1.1/DTD/svg11.dtd"><svg t="1781771920861" class="icon" viewBox="0 0 1024 1024" version="1.1" xmlns="http://www.w3.org/2000/svg" p-id="5082" xmlns:xlink="http://www.w3.org/1999/xlink" width="200" height="200"><path d="M478.633625 656.067832c6.948086 17.140864 9.260019 35.208345 9.260019 53.700738v146.236421c0 10.297215-5.9242 18.001952-16.222439 18.001952H322.515686c-10.298239 0-20.970195-7.704737-20.970195-18.001952v-98.020637c0-13.726207-1.461084-27.130913-6.636825-39.844498-5.17574-12.708465-12.080823-24.136049-21.67258-33.961252l-83.121059-85.440159c-12.975699-13.293103-23.849361-28.749676-30.85376-45.943782-7.003376-17.206393-11.298575-35.342474-11.298575-53.910634V335.206745c0-10.297215 8.131697-18.643928 18.429936-18.643928s18.429936 8.347737 18.429936 18.643928v163.67626c0 13.725183 3.730014 27.132961 8.905754 39.848593 5.17574 12.706417 13.215288 24.131953 22.807046 33.958181l83.688291 85.440158c12.975699 13.292079 22.379062 28.751724 29.380389 45.946854 7.001328 17.201273 9.826227 35.338378 9.826228 53.906539v79.162718h111.6035V709.76857c0-13.668869-1.608524-27.023405-6.743309-39.693986-5.134785-12.666485-12.067512-24.064377-21.588622-33.878318L277.794423 486.594333c-7.171293-7.38938-6.867199-19.19273 0.522182-26.364023 7.392452-7.172317 19.257235-6.989041 26.42648 0.398292L449.324908 610.22951c12.881501 13.276721 22.360632 28.698482 29.308717 45.838322z m378.881597-339.505015c-10.298239 0-18.429936 8.347737-18.429936 18.643928v163.931208c0 13.725183-1.752892 27.132961-6.928632 39.845521-5.17574 12.709489-12.227239 24.135025-21.815924 33.960228l-83.198874 85.442207c-12.973651 13.291055-24.104308 28.747628-31.107684 45.94583-7.003376 17.202297-11.55557 35.339402-11.55557 53.907562v78.907771h-111.6035V709.996896c0-13.665797 3.582575-27.015214 8.714288-39.678628 5.129665-12.660342 13.043275-24.054138 22.557218-33.867055l145.427552-149.735037c7.166173-7.392452 7.106788-19.195802-0.285664-26.363a18.567136 18.567136 0 0 0-26.30259 0.406483L577.834803 610.494697c-12.871262 13.275697-23.667109 28.693362-30.605981 45.818868-6.942966 17.130625-11.213592 35.191963-11.213592 53.682307v146.008096c0 10.297215 9.877422 18.001952 20.175661 18.001951h149.154494c10.298239 0 17.016974-7.704737 17.016974-18.001951v-97.765691c0-13.725183 3.438207-27.132961 8.613948-39.844497 5.17574-12.709489 13.068872-24.136049 22.658582-33.960229l83.61969-85.442206c12.973651-13.291055 22.117971-28.747628 29.121347-45.94583 7.003376-17.202297 9.569232-35.339402 9.569232-53.907562V335.206745c0-10.296191-8.131697-18.643928-18.429936-18.643928zM534.798855 435.541363c-0.997264 0.474059-1.85528 0.823204-3.903051 1.107844v109.859824c0 10.297215-8.64364 18.643928-18.941879 18.643928s-18.941879-8.347737-18.941878-18.643928V434.558433c0-0.28976-1.25426-0.687027-2.402035-1.223543l-146.213896-68.683251c-10.739533-5.024205-19.809109-12.103348-27.516918-21.038796-7.732382-8.958997-13.190715-19.23471-16.504008-30.540451l-40.660534-138.94943c-1.983266-6.763786 0.05529-14.06716 5.206457-18.87635a18.676692 18.676692 0 0 1 19.206041-3.854928l155.977666 57.68058c13.577743 5.018062 25.662662 13.491737 34.93292 24.503624 9.30507 11.055914 15.548723 24.380757 18.047003 38.538019l22.410801 126.862464 46.478251-115.189147c4.391444-10.890044 10.946358-20.551426 19.479418-28.711792 8.513606-8.135793 18.471915-14.282176 29.600525-18.27021l135.888013-48.71544a18.643928 18.643928 0 1 1 24.293727 22.408754l-25.150719 93.195066c-3.128994 11.590382-8.646712 22.150735-16.40162 31.384133-7.736478 9.211896-17.609804 16.508103-28.522373 21.685891l-166.361911 78.777737z m28.012478-54.177868l122.778185-58.287743c6.042971-2.866879 11.271954-6.897915 15.539508-11.980483 4.238885-5.046731 7.251156-10.80711 8.952853-17.119362l15.854864-58.745421-102.300478 36.674549c-6.183243 2.216712-11.706081 5.62113-16.415954 10.123154-4.67506 4.471307-8.265826 9.757627-10.666837 15.708448l-33.742141 83.626858z m-87.764378 2.988722l-18.680788-105.755068c-1.35972-7.702689-4.765162-14.966132-9.851825-21.006031-5.115331-6.076759-11.801302-10.760011-19.334026-13.544979l-121.177852-44.815461 30.296766 103.352009c1.806134 6.161742 4.865503 11.768538 9.09415 16.670901 4.255267 4.932056 9.426912 8.84125 15.374662 11.625194l114.278913 53.473435z" fill="#707070" p-id="5083"></path></svg>